# File produced by Open Asset Import Library (http://www.assimp.sf.net)
# (assimp v5.0.2255862537)

mtllib semisphere_3dless_com_simplified.mtl

# 149 vertex positions
v  -0.65721238 1.3074297 -0.99353242
v  -0.65721238 2.0502563 -0.7122196
v  0.22645985 1.449297 -0.99353242
v  -7.2643161e-08 2.155767 -0.7122196
v  1.9470639 2.7164249 0.14928512
v  1.7206039 3.4228952 0.70826393
v  2.6799035 2.7164249 0.70826393
v  1.023632 -1.037582 -0.99353242
v  1.2500919 -1.7440523 -0.7122196
v  0.22645985 -1.449297 -0.99353242
v  0.6572122 -2.0502565 -0.7122196
v  -7.2643161e-08 -4.4703484e-08 -1.2228152
v  -0.59287983 0.43662256 -1.1651394
v  -0.22645998 0.70647019 -1.1651394
v  -7.2643161e-08 -3.357686 0.14928512
v  -1.1711609 -3.6535838 0.70826393
v  -1.0236322 -3.1933494 0.14928512
v  -0.59287983 -3.7943087 0.70826393
v  2.0226912 0.66616869 -0.7122196
v  1.4298116 0.22954604 -0.99353242
v  1.023632 1.037582 -0.99353242
v  1.7206039 1.2671281 -0.7122196
v  -2.6799037 1.9735984 0.14928512
v  -2.6799037 2.7164249 0.70826393
v  -1.947064 2.7164249 0.14928512
v  -1.947064 1.9735984 -0.32812792
v  -2.4534438 1.2671281 -0.32812792
v  -2.1005995 0.33723623 -0.7122196
v  -2.7196634 0.43662256 -0.32812792
v  -2.0226915 0.66616869 -0.7122196
v  -1.7206042 -1.2671282 -0.7122196
v  -1.947064 -1.9735985 -0.32812792
v  -2.4534438 -1.2671282 -0.32812792
v  3.6044624 -1.1871214 0.70826393
v  4.0547304 -0.65095824 1.2228152
v  3.9043472 -1.2858876 1.2228152
v  3.7432954 -0.60095948 0.70826393
v  2.4130192 3.3664975 1.2228152
v  2.9028666 2.9424267 1.2228152
v  2.6799035 -2.7164252 0.70826393
v  2.4130192 -3.3664975 1.2228152
v  1.7206039 -3.4228954 0.70826393
v  2.9028666 -2.9424267 1.2228152
v  2.6799035 1.9735984 0.14928512
v  2.4534438 1.2671281 -0.32812792
v  1.9470639 1.9735984 -0.32812792
v  -3.1504159 1.037582 0.14928512
v  1.7206039 -1.2671282 -0.7122196
v  2.0226912 -0.66616875 -0.7122196
v  1.4298116 -0.22954613 -0.99353242
v  -2.7196634 -0.43662262 -0.32812792
v  -2.7535644 -4.4703484e-08 -0.32812792
v  -2.0226915 -0.66616875 -0.7122196
v  -3.1504159 -1.037582 0.14928512
v  -3.3125432 -4.4703484e-08 0.14928512
v  -3.7899561 -4.4703484e-08 0.70826393
v  -3.7432954 -0.60095948 0.70826393
v  -1.2500921 -2.4868791 -0.32812792
v  -0.43075243 -2.7567267 -0.32812792
v  -7.2643161e-08 -2.1557672 -0.7122196
v  1.2500919 -2.4868791 -0.32812792
v  1.9470639 -1.9735985 -0.32812792
v  1.9470639 -2.7164252 0.14928512
v  1.023632 -3.1933494 0.14928512
v  -0.22645998 -0.70647025 -1.1651394
v  0.43075228 -2.7567267 -0.32812792
v  1.8637551 3.7076738 1.2228152
v  1.2500919 1.7440522 -0.7122196
v  0.43075228 2.7567265 -0.32812792
v  0.6572122 2.0502563 -0.7122196
v  2.6799035 -1.9735985 0.14928512
v  2.7196634 0.43662256 -0.32812792
v  2.1005993 -0.33723634 -0.7122196
v  2.7196634 -0.43662262 -0.32812792
v  -1.7206042 3.4228952 0.70826393
v  -2.4130194 3.3664975 1.2228152
v  -1.8637552 3.7076738 1.2228152
v  2.4534438 -1.2671282 -0.32812792
v  -1.2685994 3.9575551 1.2228152
v  -0.59287983 3.7943087 0.70826393
v  -1.1711609 3.6535835 0.70826393
v  -0.64220637 4.1099882 1.2228152
v  -0.65721238 -1.3074297 -0.99353242
v  -7.2643161e-08 3.357686 0.14928512
v  0.59287971 3.7943087 0.70826393
v  3.1504157 -1.037582 0.14928512
v  3.2717602 -0.52525789 0.14928512
v  -0.43075243 2.7567265 -0.32812792
v  -3.7432954 0.60095942 0.70826393
v  -2.4130194 -3.3664975 1.2228152
v  -1.7206042 -3.4228954 0.70826393
v  -1.8637552 -3.707674 1.2228152
v  -3.9043472 -1.2858876 1.2228152
v  -3.3768756 -1.7440523 0.70826393
v  -3.6578255 -1.8891542 1.2228152
v  -3.6044626 -1.1871214 0.70826393
v  3.7899561 -4.4703484e-08 0.70826393
v  3.2717602 0.52525783 0.14928512
v  3.7432954 0.60095942 0.70826393
v  3.6044624 1.1871213 0.70826393
v  3.1504157 1.037582 0.14928512
v  3.3768756 1.7440522 0.70826393
v  -3.9043472 1.2858876 1.2228152
v  -3.3768756 1.7440522 0.70826393
v  -3.6044626 1.1871213 0.70826393
v  -3.6578255 1.8891542 1.2228152
v  -2.6799037 -1.9735985 0.14928512
v  -2.6799037 -2.7164252 0.70826393
v  -0.64220637 -4.1099882 1.2228152
v  -7.2643161e-08 -4.1612196 1.2228152
v  3.6578255 1.8891542 1.2228152
v  3.3212359 2.4459035 1.2228152
v  3.3768756 -1.7440523 0.70826393
v  0.59287971 -0.43662262 -1.1651394
v  0.59287971 0.43662256 -1.1651394
v  -1.947064 -2.7164252 0.14928512
v  -4.0547304 -0.65095824 1.2228152
v  -1.2500921 -1.7440523 -0.7122196
v  -1.0236322 -1.037582 -0.99353242
v  3.6578255 -1.8891542 1.2228152
v  3.3212359 -2.4459035 1.2228152
v  -1.2500921 1.7440522 -0.7122196
v  -1.2500921 2.4868789 -0.32812792
v  -1.0236322 3.1933491 0.14928512
v  -3.3212361 -2.4459035 1.2228152
v  -2.9028668 -2.9424267 1.2228152
v  -3.3212361 2.4459035 1.2228152
v  -0.59287983 -0.43662262 -1.1651394
v  -4.0547304 0.65095818 1.2228152
v  -4.1052732 -4.4703484e-08 1.2228152
v  0.59287971 -3.7943087 0.70826393
v  1.023632 3.1933491 0.14928512
v  -1.4298117 -0.22954613 -0.99353242
v  0.64220619 4.1099882 1.2228152
v  1.2685993 3.9575551 1.2228152
v  -0.65721238 -2.0502565 -0.7122196
v  -1.0236322 1.037582 -0.99353242
v  1.2500919 2.4868789 -0.32812792
v  -1.4298117 0.22954604 -0.99353242
v  -1.7206042 1.2671281 -0.7122196
v  4.0547304 0.65095818 1.2228152
v  3.9043472 1.2858876 1.2228152
v  -1.2685994 -3.9575553 1.2228152
v  -2.9028668 2.9424267 1.2228152
v  -7.2643161e-08 4.1612196 1.2228152
v  0.64220619 -4.1099882 1.2228152
v  1.2685993 -3.9575553 1.2228152
v  1.8637551 -3.707674 1.2228152
v  4.1052732 -4.4703484e-08 1.2228152

# 0 UV coordinates

# 253 vertex normals
vn -0.056766178 0.35358891 -0.93367684
vn -0.05676616 0.35358891 -0.93367684
vn 0.46815759 0.63570035 -0.61377001
vn 0.16468927 -0.31887531 -0.93337882
vn 0.1646893 -0.31887525 -0.93337882
vn -0.048477523 0.065826505 -0.99665278
vn -0.12049291 -0.75053483 -0.64975297
vn -0.16638233 -0.68371522 -0.71052825
vn 0.32288754 0.16230752 -0.93241614
vn 0.32288757 0.16230758 -0.93241614
vn -0.52043116 0.51343423 -0.68230247
vn -0.48059234 0.47413105 -0.73771995
vn -0.50158376 0.16078332 -0.85003674
vn -0.55195904 0.13073216 -0.82355952
vn -0.44047493 -0.31572112 -0.84041774
vn 0.83021933 -0.19663803 -0.52160269
vn 0.83021939 -0.1966383 -0.52160251
vn 0.4835802 0.65664232 -0.57876682
vn 0.55735433 0.64380419 -0.52428263
vn 0.48358029 -0.65664244 -0.57876658
vn 0.55735439 -0.64380431 -0.52428246
vn 0.50832474 0.36435419 -0.78028971
vn -0.59678537 0.1913003 -0.77926338
vn 0.32288754 -0.16230756 -0.93241614
vn 0.32288754 -0.16230753 -0.93241614
vn -0.49191639 -0.038194191 -0.86980426
vn -0.64612967 -0.10096092 -0.75652057
vn -0.70604336 -0.054819793 -0.7060436
vn -0.7060436 -0.054819778 -0.70604336
vn -0.19473754 -0.59128255 -0.78259963
vn 0.062022418 -0.38632944 -0.92027324
vn 0.32041588 -0.43508539 -0.84144777
vn 0.3348501 -0.64834464 -0.68375772
vn 0.089016177 -0.17235523 -0.98100448
vn 0.10663546 -0.6642186 -0.73989362
vn 0.44047481 0.31572109 -0.8404178
vn 0.44906405 0.72295403 -0.52505141
vn 0.28007114 0.27630571 -0.91935593
vn 0.28007111 -0.27630568 -0.91935593
vn 0.079581536 0.49570286 -0.86483842
vn 0.52043122 -0.51343417 -0.68230247
vn 0.49191633 0.038194127 -0.86980432
vn 0.52720928 0 -0.8497355
vn 0.48059243 -0.47413096 -0.73771995
vn -0.44906402 0.72295409 -0.52505136
vn 0.44047481 -0.31572109 -0.8404178
vn -0.20106991 0.82625556 -0.52618682
vn -0.20106986 0.82625562 -0.52618676
vn 0.51729757 0.16582039 -0.83958733
vn -0.039796088 -0.2478845 -0.96797186
vn 0 0.78807878 -0.61557436
vn 0.59678549 -0.19130035 -0.77926326
vn 0.63282561 -0.14988548 -0.75964862
vn 0 0.62202632 -0.7829963
vn -0.75908417 0.058938034 -0.64831901
vn -0.72445178 0.11319912 -0.67996734
vn -0.44906425 -0.72295398 -0.5250513
vn -0.78952479 -0.32263514 -0.52207011
vn -0.78952479 -0.32263529 -0.52206993
vn 0.75908417 0.05893803 -0.64831907
vn -0 -0.53853393 -0.8426038
vn 0.68214846 0.34289908 -0.64582795
vn 0.65493178 0.26763427 -0.70670801
vn 0.45207348 0.22724614 -0.86254781
vn 0.7406702 0.17542857 -0.64856184
vn 0.7406702 0.17542851 -0.64856184
vn -0.78952479 0.32263529 -0.52206999
vn -0.78952473 0.32263511 -0.52207011
vn -0.64268339 -0.46065891 -0.61216944
vn -0.067610122 -0.84752041 -0.52643895
vn 0.60448682 -0.30386049 -0.73638606
vn 0.69446522 0.49777502 -0.51955569
vn 0.66999573 0.40505403 -0.62212294
vn 0.089016177 0.17235523 -0.98100448
vn 0.7406702 -0.17542849 -0.64856189
vn 0.7406702 -0.1754286 -0.64856184
vn 0.65493178 -0.26763427 -0.70670801
vn 0.6821484 -0.34289902 -0.64582801
vn 0.20086405 0 -0.97961915
vn -0.3699227 -0.5023095 -0.78156406
vn 0.35913056 0.35430223 -0.86342061
vn -0.46815756 -0.63570029 -0.61377007
vn 0.4805924 0.47413102 -0.73771995
vn -0.83021945 -0.19663808 -0.52160245
vn -0.83021945 -0.19663799 -0.52160251
vn 0.073930159 0.2244745 -0.97167152
vn 0.64268321 0.46065903 -0.6121695
vn 0.59678549 0.19130035 -0.77926326
vn 0.63282567 0.14988546 -0.75964862
vn -0.079581529 0.49570286 -0.86483842
vn -0.22026843 -0.29909736 -0.92845172
vn 0.52043122 0.51343423 -0.68230247
vn 0.66999578 -0.40505409 -0.62212282
vn 0.69446528 -0.49777502 -0.51955563
vn -0.23080988 0.44689953 -0.86429602
vn -0.29331794 0.69861168 -0.65261501
vn -0.65157634 -0.54901677 -0.52347767
vn 0.23080988 -0.44689947 -0.86429602
vn 0.37313133 -0.088376477 -0.92355973
vn -0.33485007 0.64834464 -0.68375778
vn 0.35913056 -0.35430223 -0.86342061
vn -0.69446528 0.49777493 -0.51955569
vn -0.66999573 0.40505376 -0.62212312
vn -0.096823595 0 -0.99530154
vn 0.029923527 0.090856947 -0.99541426
vn -0.85077786 0.066057578 -0.5213573
vn -0.85077792 0.066057466 -0.52135718
vn -0.68214846 0.34289908 -0.64582795
vn -0.65493196 0.2676346 -0.70670778
vn 0 -0.78807878 -0.61557436
vn 0.029923527 -0.090856954 -0.99541426
vn -0.48059237 -0.47413099 -0.73772001
vn 0.65409225 0 -0.75641477
vn -0.1066356 0.66421849 -0.73989367
vn 0.16862002 -0.51198173 -0.84228379
vn 0.10663559 0.66421849 -0.73989367
vn -0.32931072 0.78433764 -0.52570802
vn -0.3293108 0.78433752 -0.52570814
vn -0.51729763 -0.1658204 -0.83958727
vn -0.59678537 -0.1913003 -0.77926338
vn -0.40926376 -0.031776737 -0.91186261
vn 0.20106985 0.82625562 -0.52618676
vn 0.062022425 0.38632947 -0.92027318
vn -0.079581521 -0.49570277 -0.86483842
vn -0.30912027 -0.598526 -0.73906112
vn -0.1340757 0.1820583 -0.97410393
vn -0.13407572 0.18205827 -0.97410393
vn 0.23080991 0.44689953 -0.86429602
vn 0.19473755 0.59128255 -0.78259963
vn -0.50832468 -0.36435407 -0.78028977
vn -0.22651671 0.1138643 -0.96732885
vn -0.056766152 -0.35358888 -0.9336769
vn -0.056766171 -0.35358885 -0.9336769
vn 0.1646893 0.31887534 -0.93337876
vn 0.16468932 0.31887528 -0.93337882
vn -0.32041588 0.43508545 -0.84144777
vn 0.32041585 0.43508545 -0.84144777
vn 0.11553391 -0.71964592 -0.68466175
vn -0.4520736 -0.22724609 -0.86254776
vn 0.19473755 -0.59128255 -0.78259963
vn -0.75509465 -0.11798723 -0.64491171
vn -0.52206916 0.040535361 -0.85193938
vn -0.50832468 0.36435407 -0.78028977
vn -0.64268339 0.46065897 -0.61216944
vn 0.60448682 0.30386052 -0.73638612
vn -0.74067026 -0.17542821 -0.64856189
vn -0.23080987 -0.44689947 -0.86429608
vn -0.17992757 -0.34838 -0.91992253
vn -0.37313128 0.088376589 -0.92355978
vn -0.32288754 0.16230752 -0.93241614
vn -0.32288754 0.1623075 -0.93241614
vn 0 0.53853405 -0.84260374
vn -0.039796084 0.24788447 -0.96797186
vn 0.36992261 0.50230956 -0.78156406
vn -0.19473754 0.59128255 -0.78259963
vn -0.6044867 -0.30386043 -0.73638624
vn 0.55195916 -0.13073198 -0.82355952
vn 0.50158364 -0.16078326 -0.8500368
vn -0.048477527 -0.065826513 -0.99665278
vn 0.24664786 -0.74889839 -0.61507398
vn -0.74067026 0.17542823 -0.64856184
vn 0.75908417 -0.058938034 -0.64831907
vn 0.73335314 0 -0.6798479
vn -0.29331794 -0.69861168 -0.65261501
vn 0.30912024 0.59852594 -0.73906112
vn -0.52043116 -0.51343417 -0.68230247
vn 0.38674393 0 -0.92218715
vn -0.35913059 -0.35430226 -0.86342061
vn -0.32041591 -0.43508539 -0.84144777
vn 0 -0.6220265 -0.78299618
vn -0.4520736 0.22724611 -0.86254776
vn -0.13407573 -0.18205829 -0.97410393
vn -0.13407572 -0.1820583 -0.97410393
vn 0.073930159 -0.22447452 -0.97167152
vn -0.65493196 -0.2676346 -0.70670778
vn -0.6821484 -0.34289902 -0.64582801
vn 0.83021939 0.19663833 -0.52160245
vn 0.83021927 0.196638 -0.52160275
vn 0.11553406 0.7196458 -0.68466181
vn -0.38674387 0 -0.92218715
vn -0.64612967 0.10096091 -0.75652057
vn -0.70604336 0.054819789 -0.7060436
vn 0.64268327 -0.460659 -0.61216956
vn -0.6044867 0.30386043 -0.73638624
vn 0.40926379 0.031776689 -0.91186261
vn 0.079581521 -0.49570277 -0.86483842
vn -0.28007111 0.27630568 -0.91935593
vn -0.36992267 0.50230956 -0.78156406
vn -0.16861999 -0.51198173 -0.84228379
vn 0.16862004 0.51198179 -0.84228373
vn -0.1799276 0.34838003 -0.91992253
vn -0.28007108 -0.27630565 -0.91935593
vn -0.22651671 -0.11386431 -0.96732885
vn -0.32288754 -0.16230753 -0.93241614
vn -0.32288751 -0.16230749 -0.9324162
vn -0.16862002 0.51198179 -0.84228373
vn -0.30912027 0.598526 -0.73906112
vn -0.35913059 0.35430226 -0.86342061
vn -0.33485007 -0.64834464 -0.68375778
vn 0.22651671 -0.11386431 -0.96732885
vn 0.30912024 -0.59852594 -0.73906112
vn -0.44047493 0.31572112 -0.84041774
vn 0.3348501 0.64834464 -0.68375772
vn 0.45207348 -0.22724612 -0.86254781
vn 0.096823588 0 -0.99530154
vn -0.10663546 -0.6642186 -0.73989362
vn 0.22651671 0.1138643 -0.96732885
vn -0.12049308 0.75053483 -0.64975297
vn -0.16638257 0.68371505 -0.71052837
vn 0.50832474 -0.36435419 -0.78028971
vn 0.36992264 -0.5023095 -0.78156406
vn -0.46815756 0.63570029 -0.61377007
vn -0.20086405 0 -0.97961915
vn -0.22026846 0.29909739 -0.92845172
vn 0.46815759 -0.63570035 -0.61377001
vn 0.24664798 0.74889827 -0.6150741
vn 0.65157634 -0.54901677 -0.52347767
vn -0.32931072 -0.78433764 -0.52570802
vn -0.3293108 -0.78433752 -0.52570814
vn 0 0 1
vn 0 0.81420147 -0.58058244
vn 0.067610122 0.84752041 -0.52643895
vn 0 -0.81420147 -0.58058244
vn 0.067610122 -0.84752041 -0.52643895
vn -0.50609982 0.68722123 -0.52114296
vn -0.51161873 0.59097463 -0.62369484
vn -0.85077792 -0.066057585 -0.52135718
vn -0.85077786 -0.066057466 -0.5213573
vn -0.50609988 -0.68722135 -0.52114272
vn -0.51161879 -0.59097475 -0.62369472
vn 0.25480974 0.77367979 -0.5800789
vn 0.32931083 0.78433752 -0.52570808
vn -0.20106959 -0.82625568 -0.52618682
vn -0.20106956 -0.82625568 -0.52618682
vn 0.25480956 -0.77367979 -0.58007902
vn 0.32931083 -0.78433752 -0.52570808
vn 0.44906428 -0.72295386 -0.52505141
vn -0.66999578 -0.40505382 -0.622123
vn -0.69446534 -0.4977749 -0.51955563
vn 0.85077786 0.066057466 -0.5213573
vn 0.85077792 0.066057585 -0.52135718
vn -0.83021945 0.196638 -0.52160251
vn -0.83021945 0.19663805 -0.52160245
vn 0.85077792 -0.066057585 -0.52135718
vn 0.85077786 -0.066057466 -0.5213573
vn -0.65157628 0.54901671 -0.52347785
vn -0.067610122 0.84752041 -0.52643895
vn 0.78952479 -0.32263514 -0.52207011
vn 0.78952479 -0.32263497 -0.52207023
vn 0.65157628 0.54901671 -0.52347785
vn 0.78952473 0.32263494 -0.52207029
vn 0.78952473 0.32263511 -0.52207011
vn 0.20106955 -0.82625574 -0.52618676

# Mesh '' with 294 faces
usemtl DefaultMaterial
f  1//1 2//1 3//1
f  4//2 3//1 2//1
f  5//3 6//3 7//3
f  8//4 9//4 10//4
f  11//5 10//4 9//4
f  12//6 13//6 14//6
f  15//7 16//7 17//7
f  16//8 15//8 18//8
f  19//9 20//9 21//9
f  21//9 22//10 19//9
f  23//11 24//11 25//11
f  25//12 26//12 23//12
f  27//13 28//13 29//13
f  28//14 27//14 30//14
f  31//15 32//15 33//15
f  34//16 35//16 36//16
f  35//16 34//16 37//17
f  38//18 7//18 6//18
f  7//19 38//19 39//19
f  40//20 41//20 42//20
f  41//21 40//21 43//21
f  44//22 45//22 46//22
f  29//23 47//23 27//23
f  48//24 8//24 49//24
f  50//25 49//24 8//24
f  28//26 51//26 52//26
f  51//26 28//26 53//26
f  52//27 54//27 55//27
f  54//28 52//28 51//28
f  56//29 54//28 57//29
f  17//30 58//30 59//30
f  60//31 10//31 11//31
f  61//32 9//32 62//32
f  63//33 42//33 64//33
f  10//34 65//34 8//34
f  15//35 66//35 64//35
f  22//36 46//36 45//36
f  6//37 67//37 38//37
f  21//38 68//38 22//38
f  9//39 8//39 48//39
f  69//40 70//40 4//40
f  71//41 40//41 63//41
f  72//42 73//42 19//42
f  73//43 72//43 74//43
f  63//44 62//44 71//44
f  75//45 76//45 77//45
f  62//46 48//46 78//46
f  79//47 80//47 81//47
f  80//47 79//47 82//48
f  19//49 45//49 72//49
f  65//50 10//50 83//50
f  84//51 80//51 85//51
f  74//52 86//52 78//52
f  86//53 74//53 87//53
f  88//54 84//54 69//54
f  89//55 55//55 56//55
f  55//56 89//56 47//56
f  90//57 91//57 92//57
f  93//58 94//58 95//58
f  94//58 93//58 96//59
f  97//60 98//60 99//60
f  60//61 66//61 59//61
f  44//62 100//62 101//62
f  100//63 44//63 102//63
f  45//64 19//64 22//64
f  101//65 99//65 98//65
f  99//65 101//65 100//66
f  103//67 104//67 105//67
f  104//67 103//67 106//68
f  94//69 107//69 108//69
f  109//70 18//70 110//70
f  71//71 78//71 86//71
f  7//72 111//72 102//72
f  111//73 7//73 112//73
f  14//74 3//74 21//74
f  86//75 37//75 34//75
f  37//75 86//75 87//76
f  71//77 34//77 113//77
f  34//78 71//78 86//78
f  50//79 114//79 20//79
f  20//79 114//79 115//79
f  116//80 32//80 58//80
f  46//81 22//81 68//81
f  116//82 91//82 108//82
f  46//83 5//83 44//83
f  117//84 96//84 93//84
f  96//84 117//84 57//85
f  21//86 115//86 14//86
f  102//87 44//87 7//87
f  101//88 72//88 45//88
f  72//89 101//89 98//89
f  2//90 88//90 4//90
f  118//91 119//91 83//91
f  7//92 44//92 5//92
f  40//93 120//93 121//93
f  120//94 40//94 113//94
f  122//95 123//95 2//95
f  124//96 75//96 81//96
f  125//97 108//97 126//97
f  9//98 61//98 11//98
f  49//99 50//99 73//99
f  25//100 75//100 124//100
f  48//101 62//101 9//101
f  106//102 24//102 104//102
f  24//103 106//103 127//103
f  12//104 128//104 13//104
f  115//105 12//105 14//105
f  129//106 56//106 130//106
f  56//106 129//106 89//107
f  105//108 23//108 47//108
f  23//109 105//109 104//109
f  18//110 15//110 131//110
f  114//111 65//111 12//111
f  32//112 116//112 107//112
f  98//113 74//113 72//113
f  87//113 74//113 98//113
f  84//114 88//114 124//114
f  66//115 11//115 61//115
f  69//116 84//116 132//116
f  77//117 81//117 75//117
f  81//117 77//117 79//118
f  53//119 33//119 51//119
f  54//120 51//120 33//120
f  133//121 53//121 28//121
f  85//122 134//122 135//122
f  3//123 4//123 70//123
f  59//124 136//124 60//124
f  58//125 17//125 116//125
f  13//126 137//126 14//126
f  1//127 14//126 137//126
f  138//128 68//128 70//128
f  132//129 138//129 69//129
f  107//130 33//130 32//130
f  137//131 13//131 139//131
f  10//132 60//132 136//132
f  136//132 83//133 10//132
f  68//134 21//134 3//134
f  3//134 70//135 68//134
f  123//136 122//136 26//136
f  68//137 138//137 46//137
f  64//138 131//138 15//138
f  33//139 53//139 31//139
f  61//140 64//140 66//140
f  54//141 56//141 55//141
f  29//142 28//142 52//142
f  27//143 23//143 26//143
f  23//144 104//144 24//144
f  45//145 44//145 101//145
f  57//146 54//146 96//146
f  58//147 118//147 136//147
f  83//148 136//148 118//148
f  30//149 139//149 28//149
f  139//150 30//150 137//150
f  140//151 137//150 30//150
f  69//152 4//152 88//152
f  3//153 14//153 1//153
f  5//154 46//154 138//154
f  123//155 124//155 88//155
f  33//156 107//156 54//156
f  73//157 78//157 49//157
f  78//158 73//158 74//158
f  12//159 65//159 128//159
f  131//160 64//160 42//160
f  47//161 89//161 105//161
f  87//162 97//162 37//162
f  97//163 87//163 98//163
f  91//164 17//164 16//164
f  138//165 132//165 5//165
f  108//166 107//166 116//166
f  20//167 73//167 50//167
f  32//168 31//168 118//168
f  118//169 58//169 32//169
f  15//170 59//170 66//170
f  30//171 27//171 140//171
f  65//172 83//172 119//172
f  119//172 128//173 65//172
f  114//174 8//174 65//174
f  96//175 107//175 94//175
f  107//176 96//176 54//176
f  100//177 141//177 99//177
f  141//177 100//177 142//178
f  85//179 132//179 84//179
f  133//180 28//180 139//180
f  47//181 52//181 55//181
f  52//182 47//182 29//182
f  71//183 113//183 40//183
f  23//184 27//184 47//184
f  20//185 19//185 73//185
f  11//186 66//186 60//186
f  122//187 137//187 140//187
f  26//188 25//188 123//188
f  136//189 59//189 58//189
f  70//190 69//190 138//190
f  2//191 1//191 122//191
f  119//192 118//192 31//192
f  128//193 119//193 133//193
f  53//194 133//194 119//194
f  119//194 31//195 53//194
f  88//196 2//196 123//196
f  124//197 123//197 25//197
f  140//198 26//198 122//198
f  91//199 116//199 17//199
f  8//200 114//200 50//200
f  64//201 61//201 63//201
f  26//202 140//202 27//202
f  6//203 5//203 132//203
f  49//204 78//204 48//204
f  114//205 12//205 115//205
f  59//206 15//206 17//206
f  115//207 21//207 20//207
f  81//208 84//208 124//208
f  84//209 81//209 80//209
f  78//210 71//210 62//210
f  62//211 63//211 61//211
f  75//212 25//212 24//212
f  139//213 128//213 133//213
f  128//213 139//213 13//213
f  137//214 122//214 1//214
f  42//215 63//215 40//215
f  132//216 85//216 6//216
f  40//217 121//217 43//217
f  16//218 92//218 91//218
f  92//218 16//218 143//219
f  117//220 129//220 130//220
f  129//220 117//220 93//220
f  129//220 93//220 103//220
f  103//220 93//220 95//220
f  103//220 95//220 106//220
f  106//220 95//220 125//220
f  106//220 125//220 127//220
f  127//220 125//220 126//220
f  127//220 126//220 144//220
f  144//220 126//220 90//220
f  144//220 90//220 76//220
f  76//220 90//220 92//220
f  76//220 92//220 77//220
f  77//220 92//220 143//220
f  77//220 143//220 79//220
f  79//220 143//220 82//220
f  82//220 143//220 109//220
f  82//220 109//220 110//220
f  82//220 110//220 145//220
f  145//220 110//220 146//220
f  145//220 146//220 134//220
f  134//220 146//220 135//220
f  135//220 146//220 147//220
f  135//220 147//220 67//220
f  67//220 147//220 148//220
f  67//220 148//220 41//220
f  67//220 41//220 38//220
f  38//220 41//220 39//220
f  39//220 41//220 43//220
f  39//220 43//220 112//220
f  112//220 43//220 121//220
f  112//220 121//220 111//220
f  111//220 121//220 120//220
f  111//220 120//220 142//220
f  142//220 120//220 36//220
f  142//220 36//220 141//220
f  141//220 36//220 35//220
f  141//220 35//220 149//220
f  145//221 85//221 80//221
f  85//222 145//222 134//222
f  131//223 110//223 18//223
f  110//224 131//224 146//224
f  144//225 75//225 24//225
f  75//226 144//226 76//226
f  130//227 57//227 117//227
f  57//227 130//227 56//228
f  91//229 126//229 108//229
f  126//230 91//230 90//230
f  135//231 6//231 85//231
f  6//232 135//232 67//232
f  18//233 143//233 16//233
f  143//233 18//233 109//234
f  42//235 147//235 131//235
f  147//236 42//236 148//236
f  148//237 42//237 41//237
f  95//238 108//238 125//238
f  108//239 95//239 94//239
f  99//240 149//240 97//240
f  149//240 99//240 141//241
f  129//242 105//242 89//242
f  105//242 129//242 103//243
f  37//244 149//244 35//244
f  149//244 37//244 97//245
f  24//246 127//246 144//246
f  80//247 82//247 145//247
f  113//248 36//248 120//248
f  36//248 113//248 34//249
f  112//250 7//250 39//250
f  102//251 142//251 100//251
f  142//251 102//251 111//252
f  146//253 131//253 147//253

