# File produced by Open Asset Import Library (http://www.assimp.sf.net)
# (assimp v3.0.1262)

mtllib toplander.stl.obj.mtl

# 18 vertex positions
v  3.25 17.3 -3.25
v  3.25 17.3 -20.05
v  20.05 17.3 -3.25
v  20.05 17.3 -3.25
v  3.25 17.3 -20.05
v  20.05 17.3 -20.05
v  20.05 17.3 -20.05
v  11.65 20.5 -11.65
v  20.05 17.3 -3.25
v  3.25 17.3 -3.25
v  11.65 20.5 -11.65
v  3.25 17.3 -20.05
v  20.05 17.3 -3.25
v  11.65 20.5 -11.65
v  3.25 17.3 -3.25
v  11.65 20.5 -11.65
v  20.05 17.3 -20.05
v  3.25 17.3 -20.05

# 0 UV coordinates

# 18 vertex normals
vn 0 -1 0
vn 0 -1 0
vn 0 -1 0
vn 0 -1 0
vn 0 -1 0
vn 0 -1 -0
vn 0.355995 0.934488 -0
vn 0.355995 0.934488 -0
vn 0.355995 0.934488 -0
vn -0.355995 0.934488 0
vn -0.355995 0.934488 0
vn -0.355995 0.934488 0
vn 0 0.934488 0.355995
vn 0 0.934488 0.355995
vn 0 0.934488 0.355995
vn 0 0.934488 -0.355995
vn 0 0.934488 -0.355995
vn 0 0.934488 -0.355995

# Mesh '<STL_BINARY>' with 6 faces
g <STL_BINARY>
usemtl DefaultMaterial
f  1//1 2//2 3//3
f  4//4 5//5 6//6
f  7//7 8//8 9//9
f  10//10 11//11 12//12
f  13//13 14//14 15//15
f  16//16 17//17 18//18

